<?xml version="1.0" encoding="UTF-8"?>
<!DOCTYPE svg PUBLIC "-//W3C//DTD SVG 1.1//EN" "http://www.w3.org/Graphics/SVG/1.1/DTD/svg11.dtd">
<!-- Creator: CorelDRAW 2019 (64-Bit Evaluation Version) -->
<svg xmlns="http://www.w3.org/2000/svg" xml:space="preserve" width="149.2mm" height="112.842mm" version="1.1" style="shape-rendering:geometricPrecision; text-rendering:geometricPrecision; image-rendering:optimizeQuality; fill-rule:evenodd; clip-rule:evenodd"
viewBox="0 0 14920 11284.2"
 xmlns:xlink="http://www.w3.org/1999/xlink">
 <defs>
  <style type="text/css">
   <![CDATA[
    .str0 {stroke:#D8161C;stroke-width:70.56;stroke-miterlimit:10}
    .fil6 {fill:none;fill-rule:nonzero}
    .fil0 {fill:#01B7FF}
    .fil2 {fill:#01B7FF;fill-rule:nonzero}
    .fil16 {fill:#606060;fill-rule:nonzero}
    .fil5 {fill:#9ECDBA;fill-rule:nonzero}
    .fil18 {fill:#A50005;fill-rule:nonzero}
    .fil4 {fill:#B8E2C1;fill-rule:nonzero}
    .fil1 {fill:#D0F2FA;fill-rule:nonzero}
    .fil8 {fill:#D49500;fill-rule:nonzero}
    .fil17 {fill:#D8161C;fill-rule:nonzero}
    .fil10 {fill:#E1E2E6;fill-rule:nonzero}
    .fil15 {fill:#E9F4FF;fill-rule:nonzero}
    .fil22 {fill:#F4750D;fill-rule:nonzero}
    .fil14 {fill:#FDFDFD;fill-rule:nonzero}
    .fil21 {fill:#FFA1A1;fill-rule:nonzero}
    .fil11 {fill:#FFB600;fill-rule:nonzero}
    .fil13 {fill:#FFC300;fill-rule:nonzero}
    .fil3 {fill:#01B7FF;fill-rule:nonzero;fill-opacity:0.231373}
    .fil7 {fill:#E4EBF4;fill-rule:nonzero}
    .fil12 {fill:#E6E6E6;fill-rule:nonzero}
    .fil9 {fill:url(#id0);fill-rule:nonzero}
    .fil19 {fill:url(#id1);fill-rule:nonzero}
    .fil20 {fill:url(#id2);fill-rule:nonzero}
   ]]>
  </style>
  <linearGradient id="id0" gradientUnits="userSpaceOnUse" x1="6939.94" y1="8153.35" x2="6939.94" y2="2004.81">
   <stop offset="0" style="stop-opacity:1; stop-color:#CAC6C1"/>
   <stop offset="0.278431" style="stop-opacity:1; stop-color:#E2E0DE"/>
   <stop offset="1" style="stop-opacity:1; stop-color:#FBFBFB"/>
  </linearGradient>
  <linearGradient id="id1" gradientUnits="userSpaceOnUse" x1="11062.62" y1="6214.97" x2="11911.81" y2="6214.97">
   <stop offset="0" style="stop-opacity:1; stop-color:black"/>
   <stop offset="0.478431" style="stop-opacity:1; stop-color:#C3161C"/>
   <stop offset="1" style="stop-opacity:1; stop-color:black"/>
  </linearGradient>
  <linearGradient id="id2" gradientUnits="userSpaceOnUse" xlink:href="#id1" x1="8986.99" y1="4136.83" x2="9997.48" y2="4136.83">
  </linearGradient>
 </defs>
 <g id="Layer_x0020_1">
  <metadata id="CorelCorpID_0Corel-Layer"/>
  <g id="_1780437132032">
   <path class="fil0" d="M11214.76 7951.26c-636.04,271.63 -1434.16,660.11 -2024.34,1010.61 -94.79,58.42 -590.17,335.9 -632.99,382.63l691.09 213.22c238.52,73.02 467.86,134.36 712.5,198.62 6079.13,1539.29 6406.33,-4033.69 1253.74,-1805.08z"/>
   <path class="fil1" d="M7070.19 0.55c3416.04,0 5026.61,1469.51 4181.85,2744.34 -1796.89,2711.66 2461.18,1078.12 3397.74,2678.98 1600.99,3107.94 -4534.29,5860.85 -6814.23,5860.85 -3416.03,0 -5026.62,-1469.52 -4181.85,-2744.34 1796.9,-2711.66 -2461.18,-1078.13 -3397.74,-2678.98 -1600.98,-3107.94 4534.28,-5860.85 6814.23,-5860.85z"/>
   <path class="fil2" d="M13457.83 10526.63c0,127.42 103.28,230.72 230.7,230.72 127.43,0 230.71,-103.3 230.71,-230.72 0,-127.42 -103.28,-230.71 -230.71,-230.71 -127.42,0 -230.7,103.29 -230.7,230.71z"/>
   <path class="fil2" d="M2432.2 7383.94c0,106.98 86.73,193.71 193.71,193.71 106.98,0 193.71,-86.73 193.71,-193.71 0,-106.98 -86.73,-193.71 -193.71,-193.71 -106.98,0 -193.71,86.73 -193.71,193.71z"/>
   <g>
    <path class="fil3" d="M10606.89 6732.4c-0.58,-18.03 -0.95,-36.07 -1.07,-54.12l2068.15 2068.16c-18.04,-0.12 -36.09,-0.48 -54.12,-1.07l-2012.96 -2012.97z"/>
    <path class="fil3" d="M10614.37 6474.62c1.47,-16.04 3.13,-32.08 4.96,-48.1l2306.4 2306.41c-16.02,1.84 -32.05,3.5 -48.1,4.96l-2263.26 -2263.27z"/>
    <path class="fil3" d="M14173.02 8123.36c-4.39,4.46 -8.66,8.99 -13.09,13.43 -4.44,4.43 -8.97,8.7 -13.43,13.09l-2944.12 -2944.13c4.39,-4.46 8.66,-8.99 13.1,-13.43 4.43,-4.43 8.96,-8.71 13.43,-13.09l2944.11 2944.13z"/>
    <path class="fil3" d="M10637.65 7028.43c-3.72,-21.09 -7.23,-42.19 -10.3,-63.35l1759.83 1759.83c-21.17,-3.07 -42.28,-6.57 -63.36,-10.3l-1686.17 -1686.18z"/>
    <path class="fil3" d="M10648.58 6243.55c3,-14.57 6.14,-29.1 9.43,-43.6l2494.29 2494.3c-14.5,3.3 -29.04,6.44 -43.6,9.43l-2460.12 -2460.13z"/>
    <path class="fil3" d="M10962.96 7831.22l558.08 558.08c-107.7,-73.02 -210.14,-157.09 -305.56,-252.51 -95.43,-95.42 -179.5,-197.87 -252.52,-305.57z"/>
    <path class="fil3" d="M10703.37 6033.08c4.24,-13.33 8.65,-26.63 13.16,-39.9l2642.54 2642.55c-13.27,4.51 -26.57,8.92 -39.9,13.16l-2615.8 -2615.81z"/>
    <path class="fil3" d="M14035.72 8251.33c-9.56,8.14 -19.19,16.21 -28.88,24.17l-2930.08 -2930.09c7.96,-9.68 16.03,-19.31 24.18,-28.88l2934.78 2934.8z"/>
    <path class="fil3" d="M10963.37 5497.28c7.13,-10.51 14.33,-20.98 21.68,-31.38l2901.31 2901.32c-10.41,7.35 -20.88,14.54 -31.39,21.67l-2891.6 -2891.61z"/>
    <path class="fil3" d="M10862.58 5661.75c6.25,-11.36 12.65,-22.65 19.13,-33.93l2842.71 2842.74c-11.27,6.47 -22.56,12.88 -33.92,19.12l-2827.92 -2827.93z"/>
    <path class="fil3" d="M10775.42 5839.86c5.29,-12.29 10.79,-24.52 16.33,-36.72l2757.37 2757.37c-12.21,5.55 -24.44,11.04 -36.72,16.33l-2736.98 -2736.98z"/>
    <path class="fil3" d="M10736.71 7392.75c-10.07,-27.02 -19.58,-54.2 -28.49,-81.53l1332.81 1332.82c-27.32,-8.91 -54.5,-18.41 -81.52,-28.49l-1222.8 -1222.8z"/>
    <path class="fil3" d="M11826.28 4768.61c12.22,-5.54 24.44,-11.04 36.73,-16.33l2736.98 2736.97c-5.3,12.29 -10.78,24.51 -16.32,36.73l-2757.39 -2757.37z"/>
    <path class="fil3" d="M11650.98 4858.56c11.27,-6.47 22.57,-12.87 33.92,-19.13l2827.93 2827.93c-6.26,11.35 -12.66,22.65 -19.13,33.92l-2842.72 -2842.72z"/>
    <path class="fil3" d="M11489.05 4961.88c10.4,-7.34 20.88,-14.52 31.38,-21.65l2891.6 2891.6c-7.13,10.51 -14.32,20.98 -21.66,31.38l-2901.32 -2901.33z"/>
    <path class="fil3" d="M11339.68 5077.79c9.58,-8.16 19.2,-16.23 28.89,-24.18l2930.07 2930.1c-7.95,9.68 -16.03,19.29 -24.18,28.87l-2934.78 -2934.79z"/>
    <path class="fil3" d="M12988.21 4604.21c21.17,3.07 42.28,6.58 63.36,10.29l1686.19 1686.19c3.71,21.07 7.23,42.18 10.29,63.35l-1759.84 -1759.83z"/>
    <path class="fil3" d="M13854.36 4939.82c107.71,73.01 210.16,157.08 305.57,252.5 95.42,95.41 179.49,197.87 252.51,305.57l-558.08 -558.07z"/>
    <path class="fil3" d="M12016.34 4693.39c13.26,-4.51 26.55,-8.92 39.89,-13.16l2615.8 2615.8c-4.22,13.33 -8.65,26.63 -13.15,39.9l-2642.54 -2642.54z"/>
    <path class="fil3" d="M12701.42 4582.68c18.04,0.11 36.09,0.48 54.13,1.07l2012.96 2012.95c0.59,18.04 0.96,36.09 1.07,54.13l-2068.16 -2068.15z"/>
    <path class="fil3" d="M14638.71 5936.36c10.06,27.01 19.57,54.19 28.47,81.54l-1332.82 -1332.82c27.33,8.91 54.51,18.41 81.53,28.48l1222.82 1222.8z"/>
    <path class="fil3" d="M12223.09 4634.87c14.51,-3.3 29.05,-6.43 43.62,-9.43l2460.12 2460.11c-2.99,14.56 -6.14,29.1 -9.44,43.62l-2494.3 -2494.3z"/>
    <path class="fil3" d="M12449.66 4596.18c16.02,-1.83 32.05,-3.48 48.11,-4.95l2263.26 2263.26c-1.46,16.05 -3.12,32.07 -4.95,48.1l-2306.42 -2306.41z"/>
   </g>
   <path class="fil2" d="M12429.24 4558.57c0,263.63 213.71,477.33 477.35,477.33 263.63,0 477.35,-213.7 477.35,-477.33 0,-263.64 -213.72,-477.35 -477.35,-477.35 -263.64,0 -477.35,213.71 -477.35,477.35z"/>
   <g>
    <path class="fil4" d="M10624.34 5503.58c85.29,-22.8 219.16,-237.59 329.62,-247.32 110.47,-9.74 244.16,120.36 357,38.38 112.82,-81.98 123.24,-434.32 252.37,-504.63 129.14,-70.32 225.57,8.5 275.03,-74.45 49.44,-82.94 -14.76,-365.41 100.88,-465.09 115.61,-99.68 210.22,-66.55 233.09,-153.69 22.88,-87.14 -46.04,-225.14 47.24,-355.6 93.27,-130.45 128.77,-297.29 -10.61,-219.52 -139.4,77.77 -263.87,176.06 -404.15,144.76 -140.28,-31.29 -114.74,208.75 -214.51,265.56 -99.77,56.82 -247.94,-39.26 -328.6,11.51 -80.64,50.76 -87.3,322 -154.89,347.61 -67.59,25.6 -337.36,-162.35 -463.69,-109.75 -126.32,52.61 28.25,394.78 -106.93,445.99 -135.19,51.21 -299.74,115.91 -299.74,115.91l387.89 760.33z"/>
    <path class="fil5" d="M12003.74 3843.16c0,0 -152.17,502.35 -1515.83,1375.59l-86.62 -140.8c0,0 1101.54,-479.06 1602.45,-1234.79z"/>
   </g>
   <path class="fil6 str0" d="M12104.32 6430.53c304.38,202.92 476.86,1207.38 -111.6,1227.68 -405.73,13.99 -565.38,-351.53 -413.04,-465.24 382.6,-285.58 829.02,718.89 382.6,921.81 -210.61,95.73 -424.29,-56.91 -654.59,-242.76 -352.45,-284.44 -743.78,-646.65 -1222.44,-315.27"/>
   <path class="fil7" d="M4727.16 9557.22c0,79.69 265.33,144.3 592.62,144.3 327.3,0 592.63,-64.61 592.63,-144.3 0,-79.7 -265.33,-144.3 -592.63,-144.3 -327.29,0 -592.62,64.6 -592.62,144.3z"/>
   <path class="fil7" d="M3552.01 9245.09l6739.7 0c235.38,0 469.47,-34.91 694.62,-103.6l1047.95 -319.71 -10328.43 0 1207.95 336.16c207.8,57.83 422.51,87.15 638.21,87.15z"/>
   <path class="fil8" d="M3267.21 4027.12l-0.43 -0.41 3148.85 -1741.63c326.26,-180.45 722.39,-180.45 1048.65,0l3149.53 1742.02 -0.44 0.43c138.72,75.73 232.83,222.89 232.83,392.06l0 4383.11c0,246.56 -199.87,446.43 -446.42,446.43l-6919.65 0c-246.56,0 -446.43,-199.87 -446.43,-446.43l0 -4383.11c0,-169.45 94.41,-316.85 233.51,-392.47z"/>
   <g>
    <path class="fil4" d="M6421.58 2116.44c-35.85,-80.68 -268.94,-179.31 -295.84,-286.89 -26.89,-107.57 80.68,-259.98 -17.93,-358.59 -98.61,-98.62 -448.26,-53.8 -537.9,-170.34 -89.65,-116.55 -26.9,-224.13 -116.55,-259.99 -89.64,-35.85 -358.6,71.73 -475.15,-26.89 -116.55,-98.62 -98.62,-197.23 -188.26,-206.2 -89.65,-8.97 -215.16,80.69 -358.6,8.97 -143.45,-71.72 -313.78,-80.69 -215.17,44.83 98.61,125.51 215.17,233.08 206.2,376.53 -8.96,143.44 224.12,80.68 295.85,170.32 71.72,89.66 0,251.04 62.75,322.75 62.75,71.73 331.7,35.87 367.57,98.61 35.86,62.77 -107.58,358.62 -35.87,475.16 71.73,116.55 385.51,-89.66 457.23,35.85 71.71,125.52 161.37,277.93 161.37,277.93l690.3 -502.05z"/>
    <path class="fil5" d="M4565.82 1013.74c0,0 519.98,71.72 1595.79,1282l-125.51 107.58c0,0 -645.5,-1013.05 -1470.28,-1389.58z"/>
   </g>
   <path class="fil9" d="M3926.55 8153.35l6026.8 0 0 -5636.6c0,-282.73 -229.21,-511.94 -511.94,-511.94l-5002.92 0c-282.73,0 -511.94,229.21 -511.94,511.94l0 5636.6z"/>
   <g>
    <polygon class="fil10" points="4691.09,2948.28 9188.82,2948.28 9188.82,2913 4691.09,2913 "/>
    <polygon class="fil10" points="4691.09,3445.35 9188.82,3445.35 9188.82,3410.07 4691.09,3410.07 "/>
    <polygon class="fil10" points="4691.09,3942.42 9188.82,3942.42 9188.82,3907.14 4691.09,3907.14 "/>
    <polygon class="fil10" points="4691.09,4439.48 9188.82,4439.48 9188.82,4404.21 4691.09,4404.21 "/>
    <polygon class="fil10" points="4691.09,4936.55 9188.82,4936.55 9188.82,4901.27 4691.09,4901.27 "/>
    <polygon class="fil10" points="4691.09,5433.6 9188.82,5433.6 9188.82,5398.34 4691.09,5398.34 "/>
    <polygon class="fil10" points="4691.09,5930.68 9188.82,5930.68 9188.82,5895.4 4691.09,5895.4 "/>
    <polygon class="fil10" points="4691.09,6427.74 9188.82,6427.74 9188.82,6392.46 4691.09,6392.46 "/>
   </g>
   <path class="fil11" d="M3689.17 4892.66l3288.59 3288.35c7.14,7.14 18.71,7.14 25.84,0l3288.36 -3288.34c146.99,-147 346.36,-229.57 554.24,-229.57l0 4139.6c0,246.56 -199.87,446.43 -446.42,446.43l-6919.65 0c-246.56,0 -446.43,-199.87 -446.43,-446.42l0 -4139.61 101.24 0c207.88,0 407.23,82.56 554.23,229.56z"/>
   <path class="fil12" d="M5827.88 7031.21l1149.88 1149.8c7.14,7.14 18.71,7.14 25.84,0l1132.13 -1132.13 2710.91 1596.51 -0.44 157.31c0,246.56 -199.87,446.43 -446.42,446.43l-6919.65 0c-246.56,0 -446.43,-199.87 -446.43,-446.43l0 -140.63 2794.18 -1630.86z"/>
   <path class="fil13" d="M3033.7 8802.7l0 -132.63 3381.93 -1870.54c326.26,-180.46 722.39,-180.46 1048.65,0l3381.92 1870.54 0 132.63c0,246.56 -199.87,446.43 -446.42,446.43l-6919.65 0c-246.56,0 -446.43,-199.87 -446.43,-446.43z"/>
   <g>
    <path class="fil14" d="M4751.24 8720.36c0,82.84 -13.23,-52.92 -268.99,-52.92 -194.22,0 -17.63,507.1 291.04,524.74 0,0 66.13,22.05 52.91,105.83 -13.23,83.78 -560.02,-110.24 -560.02,-564.42 0,-304.26 485.06,-242.52 485.06,-13.23z"/>
    <path class="fil14" d="M6059.1 8419.29c0,0 -35.88,1179.99 -778.9,1179.99 -671.99,0 -748.15,-1179.99 -748.15,-1179.99l1527.05 0z"/>
    <path class="fil15" d="M5830.8 8551.17c76.3,-8.92 128.5,-21.36 164.31,-33.91 -29.33,286.24 -160.8,1085.68 -714.91,1082.02 -36.32,-0.23 -70.59,-4.06 -103.52,-10.58 493.35,-89.07 621.57,-750.81 654.12,-1037.53z"/>
    <path class="fil15" d="M4532.05 8419.29c0,67.15 341.84,121.58 763.53,121.58 421.68,0 763.52,-54.43 763.52,-121.58 0,-67.15 -341.84,-121.59 -763.52,-121.59 -421.69,0 -763.53,54.44 -763.53,121.59z"/>
    <path class="fil14" d="M4614.04 8419.29c0,52.73 305.14,95.47 681.54,95.47 376.4,0 681.53,-42.74 681.53,-95.47 0,-52.73 -305.13,-95.47 -681.53,-95.47 -376.4,0 -681.54,42.74 -681.54,95.47z"/>
    <path class="fil16" d="M5823.82 8479.57c-124.98,21.46 -315.12,35.19 -528.24,35.19 -213.14,0 -403.28,-13.73 -528.25,-35.19 124.97,-21.45 315.11,-35.17 528.25,-35.17 213.12,0 403.26,13.72 528.24,35.17z"/>
   </g>
   <g>
    <path class="fil17" d="M9969.23 3338.44c699.47,54.88 1379.3,751.46 1511.16,893.5 135.53,138.54 798.52,851.13 819.61,1552.43 12.32,409.45 -270.01,808.38 -441.94,941.35l-790.49 -992.83c0,0 127.55,-127.07 406.53,-205.09 0,0 -69.04,-356.36 -496.63,-805.07 -403.45,-423.4 -791.75,-546.95 -791.75,-546.95 -91.38,274.89 -224.43,396.17 -224.43,396.17l-953.6 -837.41c141.09,-165.32 553.18,-428.12 961.54,-396.1z"/>
    <g>
     <path class="fil18" d="M11077.22 5725.04l141.11 -105.83c92.95,-72.54 343.1,92.68 558.71,369.01 215.62,276.33 315.05,559.15 222.13,631.67l-141.12 105.83 -780.83 -1000.68z"/>
     <path class="fil18" d="M11299.34 6356.7c215.62,276.33 465.77,441.55 558.72,369.02 92.95,-72.53 -6.5,-355.33 -222.12,-631.66 -215.63,-276.34 -465.76,-441.55 -558.72,-369.02 -92.94,72.52 6.51,355.33 222.12,631.66z"/>
     <g>
      <path class="fil19" d="M11858.06 6725.72c0,0 4.09,-3.74 11.75,-10.75 4.36,-3.05 7.43,-8.76 11.54,-15.44 4.87,-6.46 7.85,-14.84 10.51,-24.45 6.37,-19.05 7.65,-43.42 7.06,-71.06 -1.86,-27.48 -6.2,-58.48 -15.49,-90.95 -8.89,-32.55 -20.29,-67.36 -35.28,-102.85 -14.34,-35.82 -31.71,-72.6 -51.79,-109.47 -20.07,-36.87 -42.11,-74.24 -66.36,-111.01 -24.56,-36.74 -50.41,-72.59 -77.93,-108.73 -27.44,-34.35 -56.23,-68.54 -86.08,-101.47 -29.7,-32.52 -60.64,-62.94 -91.52,-91.39 -30.88,-28.42 -62.3,-54.28 -93.59,-76.85 -30.78,-23.16 -61.78,-42.69 -91.2,-59.22 -29.25,-16.9 -58.24,-28.68 -84.47,-37.13 -26.66,-7.29 -50.61,-11.97 -70.65,-10.41 -10,0.25 -18.8,1.11 -26.12,4.2 -7.38,2.33 -13.69,3.9 -17.86,7.47 -8.71,5.76 -13.36,8.83 -13.36,8.83 0,0 4.99,-2.37 14.34,-6.8 4.33,-2.85 10.77,-3.46 18.01,-4.66 7.12,-1.85 15.53,-1.66 24.95,-0.97 18.76,0.48 41.07,7.38 65.45,16.87 24.08,10.86 50.33,24.95 77.74,42.65 27.31,17.79 56.05,38.55 84.51,63 28.92,23.84 57.58,51.25 87.12,79.56 29.4,28.52 57.87,59.91 86.89,91.69 28.3,31.9 56.12,65.69 83.57,100.71 26.44,33.98 52.76,69.57 76.96,104.99 23.83,35.82 47.31,71.1 67.83,106.56 20.28,35.54 39.96,69.97 56.01,103.83 16.8,33.57 29.96,66.5 40.56,97.32 10.49,30.9 17.81,59.77 22.46,85.77 3.28,25.97 4.54,49.29 0.44,67.6 -1.64,9.34 -3.49,17.51 -6.93,23.84 -2.85,6.65 -5,12.78 -8.93,16.41 -6.62,8.03 -10.14,12.31 -10.14,12.31z"/>
     </g>
    </g>
    <g>
     <path class="fil18" d="M9003.52 3735.6l118.91 -130.26c77.8,-88.59 354.35,27.12 617.69,258.43 263.34,231.3 413.75,490.63 335.95,579.21l-118.91 130.26 -953.64 -837.64z"/>
     <path class="fil18" d="M9339.46 4314.81c263.34,231.31 539.89,347.01 617.7,258.43 77.8,-88.58 -72.61,-347.89 -335.95,-579.2 -263.34,-231.3 -539.89,-347.01 -617.69,-258.44 -77.81,88.59 72.59,347.91 335.94,579.21z"/>
     <g>
      <path class="fil20" d="M9957.16 4573.24c0,0 3.32,-4.44 9.54,-12.75 3.72,-3.8 5.66,-9.98 8.46,-17.31 3.58,-7.26 4.94,-16.05 5.77,-25.98 2.7,-19.91 -0.58,-44.09 -6.32,-71.13 -6.93,-26.65 -16.98,-56.3 -32.15,-86.48 -14.8,-30.31 -32.5,-62.4 -53.84,-94.47 -20.76,-32.51 -44.68,-65.41 -71.28,-97.9 -26.59,-32.48 -55.21,-65.09 -85.88,-96.69 -30.85,-31.43 -63.33,-62.16 -96.57,-92.07 -33.88,-29.12 -68.16,-56.99 -103.74,-83.9 -35.24,-26.41 -71.31,-50.53 -106.94,-72.72 -35.65,-22.18 -71.33,-41.73 -106.28,-58.08 -34.56,-17.02 -68.66,-30.42 -100.64,-41.18 -31.88,-11.15 -62.56,-17.32 -89.91,-20.73 -27.54,-2.21 -51.96,-2.32 -71.36,2.94 -9.78,2.1 -18.26,4.59 -24.88,9 -6.82,3.66 -12.73,6.36 -16.15,10.66 -7.48,7.27 -11.47,11.15 -11.47,11.15 0,0 4.46,-3.25 12.81,-9.34 3.73,-3.6 9.94,-5.42 16.83,-7.94 6.64,-3.14 14.95,-4.52 24.34,-5.59 18.52,-3.04 41.71,-0.41 67.43,4.38 25.69,6.18 54.1,15.12 84.33,27.4 30.15,12.39 62.26,27.43 94.78,46.16 32.86,18.02 66.11,39.6 100.41,61.92 34.22,22.55 68.02,48.08 102.46,73.88 33.63,25.97 67.65,54.32 100.62,83.16 32.83,28.91 64.93,58.64 95.43,89.03 30.1,30.76 59.74,61.04 86.51,92.06 26.54,31.13 52.3,61.29 74.37,91.57 22.77,29.85 41.83,59.74 57.98,88.05 16.08,28.41 28.64,55.41 38.06,80.1 8.06,24.89 13.65,47.57 13.02,66.32 0.14,9.49 -0.16,17.85 -2.36,24.72 -1.57,7.05 -2.54,13.48 -5.73,17.79 -4.99,9.11 -7.65,13.97 -7.65,13.97z"/>
     </g>
    </g>
    <path class="fil21" d="M12198.9 5429.38c0,0 -470.35,-1305.22 -1787.33,-1922.56 0,0 1052.41,482.11 1787.33,1922.56z"/>
    <path class="fil18" d="M10194.08 4134.94c0,0 375.15,43.81 923.02,541.88 388.04,352.75 570.3,846.61 570.3,846.61 -49.03,-13.07 -109.47,-10.26 -153.47,-5.18 -416.83,-1064.85 -1342.2,-1369.26 -1339.85,-1383.31 8.69,-51.87 0,0 0,0z"/>
   </g>
   <g>
    <path class="fil2" d="M11161.66 2391.65c6.03,30.96 12.41,55.63 19.13,74 6.69,18.41 14.14,31.87 22.3,40.35 8.16,8.5 16.86,12.86 26.15,13.1 9.3,0.29 19.4,-2.48 30.37,-8.3 18.57,-9.84 31.83,-27.07 39.82,-51.75 7.96,-24.66 10.86,-53.96 8.74,-87.88 -2.14,-33.95 -9.35,-71.13 -21.65,-111.62 -12.3,-40.4 -29.57,-81.6 -51.77,-123.48 -26,-49.03 -55.57,-89.03 -88.73,-119.94 -33.18,-30.91 -69.12,-52.69 -107.88,-65.41 -38.76,-12.68 -79.9,-16.05 -123.36,-10.09 -43.5,6.01 -88.34,21.25 -134.51,45.73 -62.4,33.08 -112.7,76.81 -150.93,131.22 -38.22,54.48 -63.83,115.13 -76.83,182.08 -12.98,67 -13.4,137.83 -1.25,212.5 12.14,74.67 37.68,148.69 76.54,221.98 33.32,62.87 70.99,113.82 113.03,152.82 42.04,39.02 86.97,66.58 134.87,82.65 47.87,16.11 97.87,20.99 150.03,14.71 52.17,-6.32 105.13,-23.76 158.94,-52.28 34.77,-18.43 65.54,-37.17 92.32,-56.23 26.78,-19.13 49.97,-37.51 69.56,-55.21 19.57,-17.71 35.76,-34.37 48.53,-49.97 12.77,-15.58 22.26,-29.03 28.52,-40.28 9.79,-13.73 19.19,-23.59 28.22,-29.59 9.02,-5.99 17.58,-9.35 25.8,-10 8.16,-0.69 15.87,0.87 23.08,4.68 7.18,3.79 13.74,8.42 19.65,13.82l46.37 49.5c-15.46,28.34 -33.58,56.55 -54.38,84.67 -20.77,28.07 -44.58,55.65 -71.44,82.7 -26.82,27.03 -57.01,52.92 -90.52,77.73 -33.53,24.74 -70.51,47.91 -110.96,69.36 -75.23,39.88 -149.53,63.7 -222.88,71.48 -73.33,7.79 -143.12,0.71 -209.32,-21.22 -66.23,-21.9 -127.53,-58.19 -183.94,-108.79 -56.42,-50.6 -105.07,-114.49 -145.96,-191.62 -31.3,-59.03 -54.52,-120.06 -69.64,-183.1 -15.11,-63.02 -22.65,-125.82 -22.56,-188.38 0.06,-62.57 7.63,-123.9 22.71,-184.06 15.07,-60.17 37.08,-116.47 65.95,-168.99 28.87,-52.53 64.61,-100.45 107.21,-143.78 42.6,-43.31 91.5,-79.62 146.74,-108.9 59.03,-31.31 119.87,-50.29 182.52,-56.98 62.64,-6.67 123.33,-1.2 182.09,16.45 58.76,17.65 113.39,47.38 163.94,89.22 50.53,41.82 93.35,95.8 128.45,162 31.56,59.49 52.63,119.99 63.26,181.43 10.63,61.51 11.25,119.57 1.82,174.26 -9.41,54.73 -28.38,104.11 -56.86,148.16 -28.48,44.08 -66.06,78.5 -112.7,103.23 -13.34,7.07 -27.24,12.47 -41.75,16.16 -14.48,3.76 -28.97,4.88 -43.47,3.41 -14.51,-1.46 -28.7,-5.52 -42.61,-12.19 -13.9,-6.65 -27.16,-16.69 -39.77,-30.13 -13.34,47.29 -31.77,85.63 -55.3,114.84 -23.51,29.29 -51.73,52.6 -84.58,70.01 -25.23,13.39 -49.65,20.53 -73.24,21.44 -23.6,0.94 -45.77,-3.17 -66.48,-12.32 -20.71,-9.14 -39.84,-22.78 -57.37,-40.92 -17.57,-18.15 -33.01,-39.84 -46.4,-65.07 -15.4,-29.06 -27.42,-60.94 -36.08,-95.69 -8.69,-34.74 -13.08,-70.39 -13.24,-106.88 -0.13,-36.54 4.2,-73.47 13.07,-110.8 8.88,-37.35 23.29,-73.47 43.18,-108.41 19.9,-34.96 45.62,-67.81 77.2,-98.58 31.56,-30.75 69.72,-58.02 114.49,-81.74 19.99,-10.6 38.23,-19.38 54.7,-26.3 16.46,-6.87 32.21,-12.52 47.3,-16.85 15.09,-4.31 29.56,-7.54 43.37,-9.68 13.79,-2.17 28.38,-3.64 43.83,-4.49l44.56 322.21zm-186.27 -123.57l0 0c-10.76,3.86 -21.14,8.46 -31.14,13.77 -22.85,12.09 -42.01,30.64 -57.44,55.59 -15.44,24.97 -26.16,53.07 -32.16,84.32 -6,31.24 -6.85,64.15 -2.52,98.77 4.33,34.64 14.71,67.39 31.09,98.35 23.23,43.81 49.58,57.84 79.12,42.19 9.03,-4.78 17.33,-11.3 24.85,-19.54 7.53,-8.26 13.53,-18.79 18.03,-31.56 4.53,-12.74 7.12,-27.98 7.79,-45.74 0.65,-17.75 -1.11,-38.58 -5.29,-62.6l-32.33 -233.55z"/>
   </g>
   <path class="fil22" d="M8525.62 1466.23c0,81.25 65.87,147.12 147.11,147.12 81.26,0 147.13,-65.87 147.13,-147.12 0,-81.25 -65.87,-147.12 -147.13,-147.12 -81.24,0 -147.11,65.87 -147.11,147.12z"/>
   <path class="fil2" d="M11753.84 8605.71c0,40.62 32.93,73.56 73.56,73.56 40.62,0 73.55,-32.94 73.55,-73.56 0,-40.63 -32.93,-73.57 -73.55,-73.57 -40.63,0 -73.56,32.94 -73.56,73.57z"/>
   <path class="fil2" d="M2008.46 954.73c0,112.08 90.86,202.93 202.92,202.93 112.07,0 202.92,-90.85 202.92,-202.93 0,-112.07 -90.85,-202.92 -202.92,-202.92 -112.06,0 -202.92,90.85 -202.92,202.92z"/>
   <path class="fil2" d="M13493.39 5148.72c0,110.84 89.86,200.7 200.7,200.7 110.84,0 200.7,-89.86 200.7,-200.7 0,-110.85 -89.86,-200.7 -200.7,-200.7 -110.84,0 -200.7,89.85 -200.7,200.7z"/>
   <g>
    <path class="fil22" d="M3197.7 1601.95l0 -20.63c0,-154.66 125.39,-280.05 280.05,-280.05l307.12 0c154.66,0 280.04,125.39 280.04,280.05l0 20.63c0,154.67 -125.38,280.05 -280.04,280.05l-307.12 0c-3.68,0 -7.26,-0.41 -10.9,-0.56 -39.42,61.29 -114.37,133.64 -250.75,141.86 0,0 105.71,-51.3 124.66,-177.24 -85.32,-47.99 -143.06,-139.25 -143.06,-244.11z"/>
    <path class="fil14" d="M3751.73 1593.57c0,25.95 21.03,46.97 46.97,46.97 25.93,0 46.96,-21.02 46.96,-46.97 0,-25.94 -21.03,-46.97 -46.96,-46.97 -25.94,0 -46.97,21.03 -46.97,46.97z"/>
    <path class="fil14" d="M3580.93 1593.57c0,25.95 21.03,46.97 46.96,46.97 25.94,0 46.97,-21.02 46.97,-46.97 0,-25.94 -21.03,-46.97 -46.97,-46.97 -25.93,0 -46.96,21.03 -46.96,46.97z"/>
    <path class="fil14" d="M3410.12 1593.57c0,25.95 21.04,46.97 46.97,46.97 25.95,0 46.97,-21.02 46.97,-46.97 0,-25.94 -21.02,-46.97 -46.97,-46.97 -25.93,0 -46.97,21.03 -46.97,46.97z"/>
   </g>
  </g>
 </g>
</svg>
