<svg id="Capa_1" enable-background="new 0 0 512 512" height="512" viewBox="0 0 512 512" width="512" xmlns="http://www.w3.org/2000/svg"><g><path d="m0 324.198h512v133.26h-512z" fill="#f3f6ff"/><path d="m256.02 324.198h255.98v133.26h-255.98z" fill="#cddbf9"/><g fill="#3c4a83"><path d="m88.125 376.019h30v29.625h-30z"/><path d="m149.275 376.019h30v29.625h-30z"/><path d="m210.425 376.019h30v29.625h-30z"/></g><path d="m271.575 376.019h30v29.625h-30z" fill="#2a386b"/><path d="m332.725 376.019h30v29.625h-30z" fill="#2a386b"/><path d="m393.875 376.019h30v29.625h-30z" fill="#2a386b"/><path d="m311.98 110.513v28.88h-30v-28.88c0-14.32-11.66-25.97-25.98-25.97s-25.98 11.65-25.98 25.97v28.88h-30v-28.88c0-30.86 25.11-55.97 55.98-55.97s55.98 25.11 55.98 55.97z" fill="#cddbf9"/><path d="m311.98 110.513v28.88h-30v-28.88c0-14.32-11.66-25.97-25.98-25.97v-30c30.87-.001 55.98 25.11 55.98 55.97z" fill="#afc2e8"/><path d="m176.09 124.393v147.48h64.91l15-6.19 15 6.19h64.91v-147.48z" fill="#fea000"/><path d="m335.91 124.393v147.479h-64.91l-15-6.19v-141.289z" fill="#f78002"/><path d="m241 181.923h30v89.95h-30z" fill="#fbe200"/><path d="m256 181.923h15v89.95h-15z" fill="#febf01"/></g></svg>